<svg xmlns="http://www.w3.org/2000/svg" version="1.1" xmlns:xlink="http://www.w3.org/1999/xlink" xmlns:svgjs="http://svgjs.dev/svgjs" width="128" height="128" viewBox="0 0 128 128"><g transform="matrix(0.8046875,0,0,0.8046875,12.760752631578946,19.11168468654553)"><svg viewBox="0 0 95 83" data-background-color="#0080ff" preserveAspectRatio="xMidYMid meet" height="111" width="128" xmlns="http://www.w3.org/2000/svg" xmlns:xlink="http://www.w3.org/1999/xlink"><g id="tight-bounds" transform="matrix(1,0,0,1,-0.24049999999999727,0.21201450976474234)"><svg viewBox="0 0 95.481 82.5759709804705" height="82.5759709804705" width="95.481"><g><svg viewBox="0 0 95.481 82.5759709804705" height="82.5759709804705" width="95.481"><g><svg viewBox="0 0 95.481 82.5759709804705" height="82.5759709804705" width="95.481"><g id="textblocktransform"><svg viewBox="0 0 95.481 82.5759709804705" height="82.5759709804705" width="95.481" id="textblock"><g><svg viewBox="0 0 95.481 82.5759709804705" height="82.5759709804705" width="95.481"><g><svg viewBox="0 0 95.481 82.5759709804705" height="82.5759709804705" width="95.481"><g><svg xmlns="http://www.w3.org/2000/svg" xmlns:xlink="http://www.w3.org/1999/xlink" version="1.1" x="0" y="0" viewBox="0 5.42500000000002 100.10499999999998 86.57499999999997" enable-background="new 0 0 100 100" xml:space="preserve" width="95.481" height="82.5759709804705" class="icon-icon-0" data-fill-palette-color="accent" id="icon-0"><g fill="#ffffff" data-fill-palette-color="accent"><path fill-rule="evenodd" clip-rule="evenodd" d="M99.577 60.995c0 0.463-0.068 0.753-0.214 0.87-0.145 0.112-0.477 0.401-1.003 0.872-1.106 0.927-2.357 2.02-3.748 3.264-1.396 1.252-2.862 2.482-4.404 3.699-1.541 1.224-3.111 2.351-4.709 3.401-1.597 1.045-3.152 1.854-4.667 2.435-0.229 0.118-0.816 0.339-1.742 0.657-0.934 0.317-1.916 0.685-2.967 1.086-1.044 0.408-2.032 0.787-2.967 1.134-0.927 0.352-1.506 0.553-1.742 0.608-0.346 0.173-1.003 0.512-1.957 1.003-0.961 0.491-1.963 1.03-3.015 1.611-1.044 0.58-2.046 1.12-3.008 1.61-0.954 0.497-1.61 0.857-1.957 1.092-0.933 0.581-1.859 1.308-2.792 2.179-0.928 0.871-1.875 1.708-2.836 2.524-0.954 0.815-1.957 1.507-3.008 2.087C51.797 91.709 50.663 92 49.439 92c-0.753 0-1.189-0.173-1.307-0.519-0.117-0.354-0.172-0.872-0.172-1.57 0-1.797 0.289-3.525 0.87-5.186 0.581-1.652 0.871-3.354 0.871-5.096h-1.044c-0.063 0-0.581 0.165-1.569 0.484-0.989 0.317-2.179 0.69-3.575 1.127-1.396 0.436-2.807 0.892-4.231 1.354-1.425 0.464-2.601 0.844-3.533 1.134-1.391 0.464-2.772 1.072-4.136 1.826-1.368 0.754-2.751 1.479-4.142 2.178-1.396 0.699-2.793 1.294-4.19 1.784-1.39 0.497-2.848 0.74-4.355 0.74-0.761 0-1.542-0.027-2.357-0.083-0.81-0.063-1.453-0.464-1.916-1.224v-1.999c0-0.934 0.082-1.742 0.263-2.44 0.173-0.699 0.407-1.384 0.698-2.047 0.29-0.671 0.608-1.362 0.955-2.089 0.352-0.726 0.697-1.555 1.051-2.488 0.345-0.928 0.607-1.771 0.781-2.524 0.172-0.754 0.304-1.479 0.395-2.178 0.082-0.692 0.131-1.418 0.131-2.178 0-0.755 0-1.625 0-2.614 0-0.173 0-0.436 0-0.781 0-0.408-0.014-0.782-0.049-1.134-0.027-0.346-0.055-0.665-0.082-0.954-0.028-0.291-0.05-0.464-0.05-0.526l-0.519-0.525c-0.352 0.291-0.933 0.829-1.741 1.618-0.816 0.781-1.688 1.611-2.621 2.482-0.927 0.871-1.813 1.693-2.655 2.482-0.844 0.781-1.439 1.32-1.791 1.611-0.927 0.809-2.047 1.61-3.354 2.393-1.308 0.787-2.607 1.175-3.879 1.175-0.588 0-1.093-0.041-1.529-0.131C0.221 76.021 0 75.626 0 74.928c0-0.055 0.014-0.146 0.049-0.263 0.027-0.11 0.041-0.2 0.041-0.256 1.335-1.161 2.427-2.414 3.271-3.748 0.845-1.334 1.598-2.718 2.269-4.135 0.663-1.425 1.335-2.849 2.005-4.273 0.664-1.417 1.466-2.828 2.393-4.224v-0.264c0-0.519-0.201-0.885-0.608-1.086-0.408-0.2-0.608-0.595-0.608-1.175V54.55c0-0.234 0.027-0.629 0.083-1.183 0.062-0.546 0.131-1.127 0.221-1.742 0.091-0.608 0.16-1.188 0.222-1.735 0.056-0.553 0.083-0.947 0.083-1.183 0.117-0.11 0.318-0.318 0.608-0.608s0.471-0.49 0.525-0.608c0.056 0 0.09-0.089 0.09-0.263 0-0.173-0.034-0.29-0.09-0.346-0.055-0.353-0.235-0.927-0.525-1.742-0.29-0.816-0.581-1.687-0.872-2.614-0.289-0.927-0.58-1.797-0.87-2.613-0.291-0.815-0.491-1.39-0.608-1.743-0.236-0.636-0.512-1.217-0.83-1.742-0.318-0.519-0.637-1.044-0.961-1.563-0.318-0.525-0.596-1.051-0.823-1.569-0.234-0.525-0.353-1.134-0.353-1.833v-1.479c0.408-0.354 0.788-0.54 1.135-0.567 0.352-0.027 0.753-0.041 1.224-0.041 1.451 0 2.8 0.372 4.052 1.134 1.251 0.753 2.427 1.534 3.533 2.351 0.291 0.228 0.796 0.622 1.521 1.176 0.732 0.546 1.501 1.127 2.316 1.742 0.81 0.608 1.583 1.189 2.309 1.742 0.728 0.546 1.231 0.94 1.521 1.176h2.53c0-0.29-0.014-0.83-0.041-1.611-0.027-0.788-0.056-1.598-0.09-2.44-0.027-0.844-0.055-1.653-0.083-2.441-0.027-0.781-0.048-1.321-0.048-1.61 0.062-1.045 0.325-2.034 0.788-2.961 0.463-0.926 0.961-1.846 1.479-2.744 0.525-0.899 0.989-1.833 1.396-2.786 0.408-0.962 0.609-1.992 0.609-3.092 0-1.278-0.388-2.281-1.177-3.008-0.78-0.726-1.729-1.278-2.835-1.652-1.099-0.381-2.268-0.656-3.484-0.83-1.224-0.173-2.268-0.345-3.14-0.524-0.234-0.057-0.566-0.318-1.002-0.782s-0.685-0.781-0.739-0.954c-0.236-0.644-0.036-1.224 0.607-1.743 0.637-0.525 1.556-1.001 2.745-1.438 1.197-0.436 2.504-0.83 3.928-1.175 1.425-0.354 2.786-0.63 4.094-0.831 1.307-0.2 2.427-0.366 3.36-0.477 0.926-0.117 1.452-0.173 1.569-0.173 5.29 0 10.448 0.768 15.476 2.303 5.026 1.542 9.639 3.879 13.822 7.012 0.117 0.117 0.407 0.324 0.871 0.615 0.463 0.29 0.754 0.491 0.87 0.608 1.979 1.1 3.956 2.164 5.934 3.18 1.971 1.018 3.906 2.075 5.795 3.175 1.888 1.106 3.72 2.323 5.496 3.658 1.771 1.341 3.443 2.876 5.014 4.619 2.206 2.44 4.08 5.026 5.621 7.751 1.543 2.73 2.981 5.579 4.315 8.539 0.353 0.754 0.761 1.493 1.224 2.22 0.464 0.727 0.913 1.452 1.35 2.179 0.435 0.726 0.801 1.479 1.091 2.268 0.291 0.781 0.437 1.576 0.437 2.393v0.871c-0.118-0.056-0.305-0.159-0.567-0.305-0.263-0.145-0.45-0.222-0.567-0.222-0.055 0-0.117-0.014-0.172-0.041-0.063-0.027-0.119-0.042-0.174-0.042-0.063 0-0.117 0.015-0.173 0.042-0.062 0.027-0.09 0.041-0.09 0.041-0.055 0-0.158 0.077-0.304 0.222-0.146 0.146-0.249 0.249-0.305 0.305v0.346c0 0.353 0.097 0.671 0.305 0.961 0.2 0.29 0.407 0.581 0.607 0.871 0.201 0.291 0.408 0.595 0.609 0.913C99.48 60.22 99.577 60.587 99.577 60.995z" fill="#ffffff" data-fill-palette-color="accent"></path></g></svg></g></svg></g></svg></g></svg></g></svg></g></svg></g><defs></defs></svg><rect width="95.481" height="82.5759709804705" fill="none" stroke="none" visibility="hidden"></rect></g></svg></g></svg>