<svg xmlns="http://www.w3.org/2000/svg" version="1.1" xmlns:xlink="http://www.w3.org/1999/xlink" xmlns:svgjs="http://svgjs.dev/svgjs" width="2000" height="1500" viewBox="0 0 2000 1500"><rect width="2000" height="1500" fill="#0080ff"></rect><g transform="matrix(0.75,0,0,0.75,249.0909211091739,511.2807939468662)"><svg viewBox="0 0 396 126" data-background-color="#0080ff" preserveAspectRatio="xMidYMid meet" height="636" width="2000" xmlns="http://www.w3.org/2000/svg" xmlns:xlink="http://www.w3.org/1999/xlink"><g id="tight-bounds" transform="matrix(1,0,0,1,0.23999696045927976,0.05790514975913652)"><svg viewBox="0 0 395.52 125.88418859113123" height="125.88418859113123" width="395.52"><g><svg viewBox="0 0 664.187842373183 211.39448728064906" height="125.88418859113123" width="395.52"><g transform="matrix(1,0,0,1,0,28.53989380954171)"><svg viewBox="0 0 395.52 154.31469966156564" height="154.31469966156564" width="395.52"><g id="textblocktransform"><svg viewBox="0 0 395.52 154.31469966156564" height="154.31469966156564" width="395.52" id="textblock"><g><svg viewBox="0 0 395.52 102.66389795312962" height="102.66389795312962" width="395.52"><g transform="matrix(1,0,0,1,0,0)"><svg width="395.52" viewBox="1.9000000953674316 -43.349998474121094 168.52999877929688 43.75" height="102.66389795312962" data-palette-color="#ffffff"><path d="M10.55 0L1.9 0 1.9-42.95 19.1-42.95 19.1-34.6 10.55-34.6 10.55-27.75 18.65-27.75 18.65-19.5 10.55-19.5 10.55 0ZM29.75 0L21.45 0 21.45-42.95 29.75-42.95 29.75 0ZM43.4 0.4Q37.55 0.4 34.95-2.5 32.34-5.4 32.34-11.85L32.34-11.85 32.34-16.05 40.8-16.05 40.8-10.7Q40.8-7.5 42.84-7.5L42.84-7.5Q44-7.5 44.45-8.18 44.9-8.85 44.9-10.45L44.9-10.45Q44.9-12.55 44.4-13.93 43.9-15.3 43.12-16.23 42.34-17.15 40.34-19.1L40.34-19.1 36.65-22.8Q32.34-27 32.34-32.1L32.34-32.1Q32.34-37.6 34.87-40.48 37.4-43.35 42.25-43.35L42.25-43.35Q48.05-43.35 50.59-40.28 53.15-37.2 53.15-30.65L53.15-30.65 44.4-30.65 44.34-33.6Q44.34-34.45 43.87-34.95 43.4-35.45 42.55-35.45L42.55-35.45Q41.55-35.45 41.05-34.9 40.55-34.35 40.55-33.4L40.55-33.4Q40.55-31.3 42.95-29.05L42.95-29.05 47.95-24.25Q49.7-22.55 50.84-21.03 52-19.5 52.7-17.43 53.4-15.35 53.4-12.5L53.4-12.5Q53.4-6.15 51.07-2.88 48.75 0.4 43.4 0.4L43.4 0.4ZM64.79 0L56.24 0 56.24-42.95 64.79-42.95 64.79-27.6 68.84-27.6 68.84-42.95 77.39-42.95 77.39 0 68.84 0 68.84-19.5 64.79-19.5 64.79 0ZM93.49 0L84.89 0 84.89-34.7 79.79-34.7 79.79-42.95 98.59-42.95 98.59-34.7 93.49-34.7 93.49 0ZM108.19 0L99.84 0 103.99-42.95 118.54-42.95 122.64 0 114.49 0 113.89-6.95 108.69-6.95 108.19 0ZM110.94-35.65L109.34-13.8 113.24-13.8 111.34-35.65 110.94-35.65ZM135.44 0.4Q129.59 0.4 126.99-2.5 124.39-5.4 124.39-11.85L124.39-11.85 124.39-16.05 132.84-16.05 132.84-10.7Q132.84-7.5 134.89-7.5L134.89-7.5Q136.03-7.5 136.49-8.18 136.94-8.85 136.94-10.45L136.94-10.45Q136.94-12.55 136.44-13.93 135.94-15.3 135.16-16.23 134.39-17.15 132.39-19.1L132.39-19.1 128.69-22.8Q124.39-27 124.39-32.1L124.39-32.1Q124.39-37.6 126.91-40.48 129.44-43.35 134.28-43.35L134.28-43.35Q140.09-43.35 142.64-40.28 145.19-37.2 145.19-30.65L145.19-30.65 136.44-30.65 136.39-33.6Q136.39-34.45 135.91-34.95 135.44-35.45 134.59-35.45L134.59-35.45Q133.59-35.45 133.09-34.9 132.59-34.35 132.59-33.4L132.59-33.4Q132.59-31.3 134.99-29.05L134.99-29.05 139.99-24.25Q141.74-22.55 142.89-21.03 144.04-19.5 144.74-17.43 145.44-15.35 145.44-12.5L145.44-12.5Q145.44-6.15 143.11-2.88 140.78 0.4 135.44 0.4L135.44 0.4ZM156.83 0L148.28 0 148.28-42.95 156.78-42.95 156.78-25.75 160.78-42.95 169.43-42.95 164.63-23.3 170.43 0 161.53 0 156.83-20.8 156.83 0Z" opacity="1" transform="matrix(1,0,0,1,0,0)" fill="#ffffff" class="undefined-text-0" data-fill-palette-color="primary" id="text-0"></path></svg></g></svg></g><g transform="matrix(1,0,0,1,163.310208,126.90038032631264)"><svg viewBox="0 0 232.209792 27.414319335252983" height="27.414319335252983" width="232.209792"><g transform="matrix(1,0,0,1,0,0)"><svg width="232.209792" viewBox="1.6600000858306885 -39.040000915527344 415.4100036621094 49.05000305175781" height="27.414319335252983" data-palette-color="#ffffff"><path d="M16.89 0L16.89 0 1.66 0 1.66-6.64 16.89-6.64Q17.58-6.64 18.07-7.13 18.55-7.62 18.55-8.3L18.55-8.3Q18.55-9.01 18.07-9.23 17.58-9.45 16.89-9.45L16.89-9.45 9.96-9.45Q8.23-9.45 6.71-10.11 5.2-10.77 4.08-11.9 2.95-13.04 2.31-14.55 1.66-16.06 1.66-17.8L1.66-17.8Q1.66-19.53 2.31-21.04 2.95-22.56 4.08-23.68 5.2-24.8 6.71-25.45 8.23-26.1 9.96-26.1L9.96-26.1 23.46-26.1 23.46-19.46 9.96-19.46Q9.28-19.46 8.79-18.97 8.3-18.48 8.3-17.8L8.3-17.8Q8.3-17.09 8.79-16.59 9.28-16.09 9.96-16.09L9.96-16.09 16.89-16.09Q18.6-16.09 20.12-15.52 21.63-14.94 22.75-13.92 23.88-12.89 24.54-11.45 25.2-10.01 25.2-8.3L25.2-8.3Q25.2-6.57 24.54-5.07 23.88-3.56 22.75-2.43 21.63-1.29 20.12-0.65 18.6 0 16.89 0ZM36.59-33.25L36.59-33.25Q36.59-32.32 36.24-31.52 35.89-30.71 35.28-30.11 34.67-29.52 33.85-29.16 33.03-28.81 32.1-28.81L32.1-28.81Q31.17-28.81 30.36-29.16 29.54-29.52 28.94-30.11 28.34-30.71 27.99-31.52 27.63-32.32 27.63-33.25L27.63-33.25Q27.63-34.16 27.99-34.97 28.34-35.79 28.94-36.39 29.54-36.99 30.36-37.34 31.17-37.7 32.1-37.7L32.1-37.7Q33.03-37.7 33.85-37.34 34.67-36.99 35.28-36.39 35.89-35.79 36.24-34.97 36.59-34.16 36.59-33.25ZM35.45-26.15L35.45 0 28.73 0 28.73-26.15 35.45-26.15ZM73.77-16.6L73.77 0 67.13 0 67.13-16.6Q67.13-17.29 66.88-17.9 66.62-18.51 66.16-18.97 65.69-19.43 65.08-19.69 64.47-19.95 63.79-19.95L63.79-19.95Q63.11-19.95 62.51-19.69 61.91-19.43 61.46-18.97 61.01-18.51 60.75-17.9 60.49-17.29 60.49-16.6L60.49-16.6 60.49 0 53.83 0 53.83-16.6Q53.83-17.29 53.57-17.9 53.32-18.51 52.85-18.97 52.39-19.43 51.78-19.69 51.17-19.95 50.48-19.95L50.48-19.95Q49.8-19.95 49.2-19.69 48.6-19.43 48.15-18.97 47.7-18.51 47.44-17.9 47.19-17.29 47.19-16.6L47.19-16.6 47.19 0 40.52 0 40.52-26.15 42.13-26.15 43.94-24.15Q45.33-25.32 47-25.96 48.68-26.61 50.48-26.61L50.48-26.61Q52.31-26.61 54.06-25.93 55.81-25.24 57.12-23.56L57.12-23.56Q57.73-24.39 58.52-24.98 59.3-25.56 60.16-25.93 61.03-26.29 61.96-26.45 62.89-26.61 63.79-26.61L63.79-26.61Q65.86-26.61 67.68-25.83 69.5-25.05 70.86-23.69 72.21-22.34 72.99-20.51 73.77-18.68 73.77-16.6L73.77-16.6ZM85.34-1.76L85.34 9.96 78.63 9.96 78.63-26.15 80.24-26.15 82.9-23Q83.81-23.85 84.88-24.61 85.95-25.37 87.11-25.92 88.27-26.46 89.52-26.78 90.76-27.1 92.03-27.1L92.03-27.1Q94.79-27.1 97.22-26.11 99.65-25.12 101.47-23.32 103.29-21.51 104.34-18.96 105.39-16.41 105.39-13.31L105.39-13.31Q105.39-10.08 104.34-7.51 103.29-4.93 101.47-3.14 99.65-1.34 97.22-0.39 94.79 0.56 92.03 0.56L92.03 0.56Q91.15 0.56 90.29 0.37 89.42 0.17 88.58-0.16 87.74-0.49 86.92-0.9 86.1-1.32 85.34-1.76L85.34-1.76ZM98.7-13.31L98.7-13.31Q98.7-14.97 98.17-16.28 97.65-17.6 96.75-18.52 95.84-19.43 94.62-19.92 93.4-20.41 92.03-20.41L92.03-20.41Q90.67-20.41 89.46-19.92 88.25-19.43 87.35-18.52 86.44-17.6 85.92-16.28 85.39-14.97 85.39-13.31L85.39-13.31Q85.39-11.72 85.92-10.4 86.44-9.08 87.35-8.15 88.25-7.23 89.46-6.71 90.67-6.2 92.03-6.2L92.03-6.2Q93.4-6.2 94.62-6.71 95.84-7.23 96.75-8.15 97.65-9.08 98.17-10.4 98.7-11.72 98.7-13.31ZM115.79-36.55L115.79 0 109.07 0 109.07-36.55 115.79-36.55ZM128.72-33.25L128.72-33.25Q128.72-32.32 128.37-31.52 128.01-30.71 127.4-30.11 126.79-29.52 125.98-29.16 125.16-28.81 124.23-28.81L124.23-28.81Q123.3-28.81 122.49-29.16 121.67-29.52 121.07-30.11 120.47-30.71 120.12-31.52 119.76-32.32 119.76-33.25L119.76-33.25Q119.76-34.16 120.12-34.97 120.47-35.79 121.07-36.39 121.67-36.99 122.49-37.34 123.3-37.7 124.23-37.7L124.23-37.7Q125.16-37.7 125.98-37.34 126.79-36.99 127.4-36.39 128.01-35.79 128.37-34.97 128.72-34.16 128.72-33.25ZM127.58-26.15L127.58 0 120.86 0 120.86-26.15 127.58-26.15ZM141.12-19.51L141.12 0 134.46 0 134.46-19.51 131.21-19.51 131.21-26.15 134.46-26.15 134.46-27.39Q134.46-29.81 135.37-31.93 136.29-34.06 137.89-35.63 139.49-37.21 141.61-38.12 143.74-39.04 146.15-39.04L146.15-39.04 151.16-39.04 151.16-32.4 146.15-32.4Q145.08-32.4 144.16-32.02 143.25-31.64 142.58-30.97 141.9-30.3 141.51-29.38 141.12-28.47 141.12-27.39L141.12-27.39 141.12-26.15 149.3-26.15 149.3-19.51 141.12-19.51ZM161.97 10.01L158.55 9.96 158.55 3.25 162.26 3.3Q163.24 3.3 164.14 2.98 165.05 2.66 165.82 2.1 166.58 1.54 167.17 0.77 167.76 0 168.12-0.9L168.12-0.9Q167.02-0.44 165.89 0.02 164.75 0.49 163.61 0.49L163.61 0.49Q161.19 0.49 159.06-0.37 156.94-1.22 155.34-2.8 153.74-4.37 152.83-6.63 151.91-8.89 151.91-11.69L151.91-11.69 151.91-26.15 158.55-26.15 158.55-11.69Q158.55-10.3 158.95-9.27 159.36-8.23 160.04-7.53 160.72-6.84 161.64-6.49 162.56-6.15 163.61-6.15L163.61-6.15Q164.63-6.15 165.55-6.63 166.46-7.1 167.15-7.89 167.83-8.67 168.22-9.66 168.61-10.64 168.61-11.69L168.61-11.69 168.61-26.15 175.32-26.15 175.32-3.3Q175.3-0.54 174.25 1.88 173.2 4.3 171.38 6.1 169.56 7.91 167.15 8.96 164.73 10.01 161.97 10.01L161.97 10.01ZM204.1 10.01L200.69 9.96 200.69 3.25 204.4 3.3Q205.37 3.3 206.28 2.98 207.18 2.66 207.95 2.1 208.72 1.54 209.3 0.77 209.89 0 210.26-0.9L210.26-0.9Q209.16-0.44 208.02 0.02 206.89 0.49 205.74 0.49L205.74 0.49Q203.32 0.49 201.2-0.37 199.07-1.22 197.48-2.8 195.88-4.37 194.96-6.63 194.04-8.89 194.04-11.69L194.04-11.69 194.04-26.15 200.69-26.15 200.69-11.69Q200.69-10.3 201.09-9.27 201.49-8.23 202.17-7.53 202.86-6.84 203.77-6.49 204.69-6.15 205.74-6.15L205.74-6.15Q206.76-6.15 207.68-6.63 208.6-7.1 209.28-7.89 209.96-8.67 210.35-9.66 210.74-10.64 210.74-11.69L210.74-11.69 210.74-26.15 217.46-26.15 217.46-3.3Q217.43-0.54 216.38 1.88 215.33 4.3 213.52 6.1 211.7 7.91 209.28 8.96 206.86 10.01 204.1 10.01L204.1 10.01ZM247.8-13.31L247.8-13.31Q247.8-10.38 246.75-7.85 245.7-5.32 243.9-3.48 242.09-1.64 239.66-0.57 237.23 0.49 234.45 0.49L234.45 0.49Q231.69 0.49 229.26-0.57 226.83-1.64 225.01-3.48 223.19-5.32 222.14-7.85 221.09-10.38 221.09-13.31L221.09-13.31Q221.09-16.28 222.14-18.82 223.19-21.36 225.01-23.21 226.83-25.05 229.26-26.1 231.69-27.15 234.45-27.15L234.45-27.15Q237.23-27.15 239.66-26.16 242.09-25.17 243.9-23.35 245.7-21.53 246.75-18.98 247.8-16.43 247.8-13.31ZM241.09-13.31L241.09-13.31Q241.09-14.92 240.56-16.22 240.04-17.53 239.14-18.47 238.23-19.41 237.02-19.91 235.81-20.41 234.45-20.41L234.45-20.41Q233.08-20.41 231.87-19.91 230.66-19.41 229.77-18.47 228.88-17.53 228.37-16.22 227.86-14.92 227.86-13.31L227.86-13.31Q227.86-11.79 228.37-10.5 228.88-9.2 229.77-8.25 230.66-7.3 231.87-6.75 233.08-6.2 234.45-6.2L234.45-6.2Q235.81-6.2 237.02-6.71 238.23-7.23 239.14-8.15 240.04-9.08 240.56-10.4 241.09-11.72 241.09-13.31ZM272.9 0L270.7-3.05Q269.89-2.32 268.98-1.67 268.06-1.03 267.06-0.55 266.06-0.07 265 0.21 263.94 0.49 262.84 0.49L262.84 0.49Q260.42 0.49 258.3-0.37 256.17-1.22 254.57-2.8 252.98-4.37 252.06-6.63 251.14-8.89 251.14-11.69L251.14-11.69 251.14-26.15 257.79-26.15 257.79-11.69Q257.79-10.38 258.19-9.34 258.59-8.3 259.27-7.59 259.96-6.88 260.87-6.52 261.79-6.15 262.84-6.15L262.84-6.15Q263.86-6.15 264.78-6.63 265.7-7.1 266.38-7.89 267.06-8.67 267.45-9.66 267.84-10.64 267.84-11.69L267.84-11.69 267.84-26.15 274.51-26.15 274.51 0 272.9 0ZM286.25-14.4L286.25 0 279.58 0 279.58-26.15 281.2-26.15 283.39-23.05Q285-24.51 287.05-25.31 289.11-26.1 291.3-26.1L291.3-26.1 297.19-26.1 297.19-19.46 291.3-19.46Q290.25-19.46 289.33-19.07 288.4-18.68 287.71-17.99 287.03-17.31 286.64-16.38 286.25-15.45 286.25-14.4L286.25-14.4ZM332.44 0L327.38 0Q324.97 0 322.84-0.92 320.72-1.83 319.12-3.43 317.52-5.03 316.6-7.15 315.69-9.28 315.69-11.69L315.69-11.69 315.69-19.46 312.44-19.46 312.44-26.1 315.69-26.1 315.69-36.55 322.33-36.55 322.33-26.1 332.44-26.1 332.44-19.46 322.33-19.46 322.33-11.69Q322.33-10.64 322.72-9.73 323.11-8.81 323.79-8.13 324.48-7.45 325.4-7.04 326.33-6.64 327.38-6.64L327.38-6.64 332.44-6.64 332.44 0ZM361.49-26.1L361.49 0 359.87 0 357.29-3.59Q356.33-2.73 355.27-1.99 354.21-1.25 353.04-0.7 351.87-0.15 350.63 0.17 349.4 0.49 348.13 0.49L348.13 0.49Q345.37 0.49 342.94-0.44 340.51-1.37 338.7-3.14 336.88-4.91 335.83-7.47 334.78-10.03 334.78-13.31L334.78-13.31Q334.78-16.36 335.83-18.91 336.88-21.46 338.7-23.29 340.51-25.12 342.94-26.14 345.37-27.15 348.13-27.15L348.13-27.15Q349.4-27.15 350.65-26.83 351.89-26.51 353.06-25.95 354.23-25.39 355.3-24.63 356.36-23.88 357.29-23L357.29-23 359.87-26.1 361.49-26.1ZM354.77-13.31L354.77-13.31Q354.77-14.67 354.25-15.95 353.72-17.24 352.82-18.23 351.92-19.21 350.71-19.81 349.5-20.41 348.13-20.41L348.13-20.41Q346.76-20.41 345.56-19.95 344.35-19.48 343.46-18.58 342.57-17.68 342.05-16.35 341.54-15.01 341.54-13.31L341.54-13.31Q341.54-11.6 342.05-10.27 342.57-8.94 343.46-8.03 344.35-7.13 345.56-6.67 346.76-6.2 348.13-6.2L348.13-6.2Q349.5-6.2 350.71-6.8 351.92-7.4 352.82-8.39 353.72-9.38 354.25-10.66 354.77-11.94 354.77-13.31ZM380.92 0L380.92 0 365.68 0 365.68-6.64 380.92-6.64Q381.6-6.64 382.09-7.13 382.58-7.62 382.58-8.3L382.58-8.3Q382.58-9.01 382.09-9.23 381.6-9.45 380.92-9.45L380.92-9.45 373.98-9.45Q372.25-9.45 370.74-10.11 369.22-10.77 368.1-11.9 366.98-13.04 366.33-14.55 365.68-16.06 365.68-17.8L365.68-17.8Q365.68-19.53 366.33-21.04 366.98-22.56 368.1-23.68 369.22-24.8 370.74-25.45 372.25-26.1 373.98-26.1L373.98-26.1 387.48-26.1 387.48-19.46 373.98-19.46Q373.3-19.46 372.81-18.97 372.32-18.48 372.32-17.8L372.32-17.8Q372.32-17.09 372.81-16.59 373.3-16.09 373.98-16.09L373.98-16.09 380.92-16.09Q382.63-16.09 384.14-15.52 385.65-14.94 386.78-13.92 387.9-12.89 388.56-11.45 389.22-10.01 389.22-8.3L389.22-8.3Q389.22-6.57 388.56-5.07 387.9-3.56 386.78-2.43 385.65-1.29 384.14-0.65 382.63 0 380.92 0ZM399.47-3.34L399.47 0 392.76 0 392.76-36.55 399.47-36.55 399.47-13.5 409.41-26.1 417.07-26.1 408.4-15.21 417.07 0 409.41 0 404.11-9.5 399.47-3.34Z" opacity="1" transform="matrix(1,0,0,1,0,0)" fill="#ffffff" class="undefined-text-1" data-fill-palette-color="secondary" id="text-1"></path></svg></g></svg></g></svg></g></svg></g><g transform="matrix(1,0,0,1,419.756482373183,0)"><svg viewBox="0 0 244.43135999999998 211.39448728064906" height="211.39448728064906" width="244.43135999999998"><g><svg xmlns="http://www.w3.org/2000/svg" xmlns:xlink="http://www.w3.org/1999/xlink" version="1.1" x="0" y="0" viewBox="0 5.42500114440918 100.10499572753906 86.57499694824219" enable-background="new 0 0 100 100" xml:space="preserve" width="244.43135999999998" height="211.39448728064906" class="icon-icon-0" data-fill-palette-color="accent" id="icon-0"><g fill="#ffffff" data-fill-palette-color="accent"><path fill-rule="evenodd" clip-rule="evenodd" d="M99.577 60.995c0 0.463-0.068 0.753-0.214 0.87-0.145 0.112-0.477 0.401-1.003 0.872-1.106 0.927-2.357 2.02-3.748 3.264-1.396 1.252-2.862 2.482-4.404 3.699-1.541 1.224-3.111 2.351-4.709 3.401-1.597 1.045-3.152 1.854-4.667 2.435-0.229 0.118-0.816 0.339-1.742 0.657-0.934 0.317-1.916 0.685-2.967 1.086-1.044 0.408-2.032 0.787-2.967 1.134-0.927 0.352-1.506 0.553-1.742 0.608-0.346 0.173-1.003 0.512-1.957 1.003-0.961 0.491-1.963 1.03-3.015 1.611-1.044 0.58-2.046 1.12-3.008 1.61-0.954 0.497-1.61 0.857-1.957 1.092-0.933 0.581-1.859 1.308-2.792 2.179-0.928 0.871-1.875 1.708-2.836 2.524-0.954 0.815-1.957 1.507-3.008 2.087C51.797 91.709 50.663 92 49.439 92c-0.753 0-1.189-0.173-1.307-0.519-0.117-0.354-0.172-0.872-0.172-1.57 0-1.797 0.289-3.525 0.87-5.186 0.581-1.652 0.871-3.354 0.871-5.096h-1.044c-0.063 0-0.581 0.165-1.569 0.484-0.989 0.317-2.179 0.69-3.575 1.127-1.396 0.436-2.807 0.892-4.231 1.354-1.425 0.464-2.601 0.844-3.533 1.134-1.391 0.464-2.772 1.072-4.136 1.826-1.368 0.754-2.751 1.479-4.142 2.178-1.396 0.699-2.793 1.294-4.19 1.784-1.39 0.497-2.848 0.74-4.355 0.74-0.761 0-1.542-0.027-2.357-0.083-0.81-0.063-1.453-0.464-1.916-1.224v-1.999c0-0.934 0.082-1.742 0.263-2.44 0.173-0.699 0.407-1.384 0.698-2.047 0.29-0.671 0.608-1.362 0.955-2.089 0.352-0.726 0.697-1.555 1.051-2.488 0.345-0.928 0.607-1.771 0.781-2.524 0.172-0.754 0.304-1.479 0.395-2.178 0.082-0.692 0.131-1.418 0.131-2.178 0-0.755 0-1.625 0-2.614 0-0.173 0-0.436 0-0.781 0-0.408-0.014-0.782-0.049-1.134-0.027-0.346-0.055-0.665-0.082-0.954-0.028-0.291-0.05-0.464-0.05-0.526l-0.519-0.525c-0.352 0.291-0.933 0.829-1.741 1.618-0.816 0.781-1.688 1.611-2.621 2.482-0.927 0.871-1.813 1.693-2.655 2.482-0.844 0.781-1.439 1.32-1.791 1.611-0.927 0.809-2.047 1.61-3.354 2.393-1.308 0.787-2.607 1.175-3.879 1.175-0.588 0-1.093-0.041-1.529-0.131C0.221 76.021 0 75.626 0 74.928c0-0.055 0.014-0.146 0.049-0.263 0.027-0.11 0.041-0.2 0.041-0.256 1.335-1.161 2.427-2.414 3.271-3.748 0.845-1.334 1.598-2.718 2.269-4.135 0.663-1.425 1.335-2.849 2.005-4.273 0.664-1.417 1.466-2.828 2.393-4.224v-0.264c0-0.519-0.201-0.885-0.608-1.086-0.408-0.2-0.608-0.595-0.608-1.175V54.55c0-0.234 0.027-0.629 0.083-1.183 0.062-0.546 0.131-1.127 0.221-1.742 0.091-0.608 0.16-1.188 0.222-1.735 0.056-0.553 0.083-0.947 0.083-1.183 0.117-0.11 0.318-0.318 0.608-0.608s0.471-0.49 0.525-0.608c0.056 0 0.09-0.089 0.09-0.263 0-0.173-0.034-0.29-0.09-0.346-0.055-0.353-0.235-0.927-0.525-1.742-0.29-0.816-0.581-1.687-0.872-2.614-0.289-0.927-0.58-1.797-0.87-2.613-0.291-0.815-0.491-1.39-0.608-1.743-0.236-0.636-0.512-1.217-0.83-1.742-0.318-0.519-0.637-1.044-0.961-1.563-0.318-0.525-0.596-1.051-0.823-1.569-0.234-0.525-0.353-1.134-0.353-1.833v-1.479c0.408-0.354 0.788-0.54 1.135-0.567 0.352-0.027 0.753-0.041 1.224-0.041 1.451 0 2.8 0.372 4.052 1.134 1.251 0.753 2.427 1.534 3.533 2.351 0.291 0.228 0.796 0.622 1.521 1.176 0.732 0.546 1.501 1.127 2.316 1.742 0.81 0.608 1.583 1.189 2.309 1.742 0.728 0.546 1.231 0.94 1.521 1.176h2.53c0-0.29-0.014-0.83-0.041-1.611-0.027-0.788-0.056-1.598-0.09-2.44-0.027-0.844-0.055-1.653-0.083-2.441-0.027-0.781-0.048-1.321-0.048-1.61 0.062-1.045 0.325-2.034 0.788-2.961 0.463-0.926 0.961-1.846 1.479-2.744 0.525-0.899 0.989-1.833 1.396-2.786 0.408-0.962 0.609-1.992 0.609-3.092 0-1.278-0.388-2.281-1.177-3.008-0.78-0.726-1.729-1.278-2.835-1.652-1.099-0.381-2.268-0.656-3.484-0.83-1.224-0.173-2.268-0.345-3.14-0.524-0.234-0.057-0.566-0.318-1.002-0.782s-0.685-0.781-0.739-0.954c-0.236-0.644-0.036-1.224 0.607-1.743 0.637-0.525 1.556-1.001 2.745-1.438 1.197-0.436 2.504-0.83 3.928-1.175 1.425-0.354 2.786-0.63 4.094-0.831 1.307-0.2 2.427-0.366 3.36-0.477 0.926-0.117 1.452-0.173 1.569-0.173 5.29 0 10.448 0.768 15.476 2.303 5.026 1.542 9.639 3.879 13.822 7.012 0.117 0.117 0.407 0.324 0.871 0.615 0.463 0.29 0.754 0.491 0.87 0.608 1.979 1.1 3.956 2.164 5.934 3.18 1.971 1.018 3.906 2.075 5.795 3.175 1.888 1.106 3.72 2.323 5.496 3.658 1.771 1.341 3.443 2.876 5.014 4.619 2.206 2.44 4.08 5.026 5.621 7.751 1.543 2.73 2.981 5.579 4.315 8.539 0.353 0.754 0.761 1.493 1.224 2.22 0.464 0.727 0.913 1.452 1.35 2.179 0.435 0.726 0.801 1.479 1.091 2.268 0.291 0.781 0.437 1.576 0.437 2.393v0.871c-0.118-0.056-0.305-0.159-0.567-0.305-0.263-0.145-0.45-0.222-0.567-0.222-0.055 0-0.117-0.014-0.172-0.041-0.063-0.027-0.119-0.042-0.174-0.042-0.063 0-0.117 0.015-0.173 0.042-0.062 0.027-0.09 0.041-0.09 0.041-0.055 0-0.158 0.077-0.304 0.222-0.146 0.146-0.249 0.249-0.305 0.305v0.346c0 0.353 0.097 0.671 0.305 0.961 0.2 0.29 0.407 0.581 0.607 0.871 0.201 0.291 0.408 0.595 0.609 0.913C99.48 60.22 99.577 60.587 99.577 60.995z" fill="#ffffff" data-fill-palette-color="accent"></path></g></svg></g></svg></g></svg></g><defs></defs></svg><rect width="395.52" height="125.88418859113123" fill="none" stroke="none" visibility="hidden"></rect></g></svg></g></svg>